{"title":"The.Lone.Ranger.2013.720p.BRRip.x264-Fastbet99","uid":8996711,"size":1909065636,"categoryP":"video","categoryS":"hd___movies","magnet":"?xt=urn:btih:697927ee8763a60bf9b5c6db4d1bc9a4f8dd404a&amp;dn=The.Lone.Ranger.2013.720p.BRRip.x264-Fastbet99&amp;tr=udp%3A%2F%2Ftracker.openbittorrent.com%3A80&amp;tr=udp%3A%2F%2Fopen.demonii.com%3A1337&amp;tr=udp%3A%2F%2Ftracker.coppersurfer.tk%3A6969&amp;tr=udp%3A%2F%2Fexodus.desync.com%3A6969","seeders":1,"leechers":1,"uploader":"Fastbet99","files":-1,"time":1380881074,"description":"The Lone Ranger (2013)\n\nIMDB Info\t\t\t\t : http://www.imdb.com/title/tt1210819\n\nSource\t\t\t\t\t : PHD (Thanks)\nComplete name                            : The.Lone.Ranger.2013.720p.BRRip.x264-Fastbet99.mp4\nFormat                                   : MPEG-4\nFormat profile                           : Base Media\nCodec ID                                 : isom\nFile size                                : 1.78 GiB\nDuration                                 : 2h 29mn\nOverall bit rate mode                    : Variable\nOverall bit rate                         : 1 702 Kbps\n\nVideo\nID                                       : 1\nFormat                                   : AVC\nFormat/Info                              : Advanced Video Codec\nFormat profile                           : &lt;a class=&quot;__cf_email__&quot; href=&quot;/cdn-cgi/l/email-protection&quot; data-cfemail=&quot;cc84a5aba48c80f8e2fd&quot;&gt;[email&amp;#160;protected]&lt;/a&gt;&lt;script cf-hash='f9e31' type=&quot;text/javascript&quot;&gt;\n/* &lt;![CDATA[ */!function(){try{var t=&quot;currentScript&quot;in document?document.currentScript:function(){for(var t=document.getElementsByTagName(&quot;script&quot;),e=t.length;e--;)if(t[e].getAttribute(&quot;cf-hash&quot;))return t[e]}();if(t&amp;&amp;t.previousSibling){var e,r,n,i,c=t.previousSibling,a=c.getAttribute(&quot;data-cfemail&quot;);if(a){for(e=&quot;&quot;,r=parseInt(a.substr(0,2),16),n=2;a.length-n;n+=2)i=parseInt(a.substr(n,2),16)^r,e+=String.fromCharCode(i);e=document.createTextNode(e),c.parentNode.replaceChild(e,c)}}}catch(u){}}();/* ]]&gt; */&lt;/script&gt;\nFormat settings, CABAC                   : Yes\nFormat settings, ReFrames                : 4 frames\nCodec ID                                 : avc1\nCodec ID/Info                            : Advanced Video Coding\nDuration                                 : 2h 29mn\nBit rate                                 : 1 601 Kbps\nMaximum bit rate                         : 8 017 Kbps\nWidth                                    : 1 280 pixels\nHeight                                   : 534 pixels\nDisplay aspect ratio                     : 2.40:1\nFrame rate mode                          : Constant\nFrame rate                               : 23.976 fps\nColor space                              : YUV\nChroma subsampling                       : 4:2:0\nBit depth                                : 8 bits\nScan type                                : Progressive\nBits/(Pixel*Frame)                       : 0.098\nStream size                              : 1.67 GiB (94%)\nWriting library                          : x264 core 133 r2334 a3ac64b\n\nAudio\nID                                       : 2\nFormat                                   : AAC\nFormat/Info                              : Advanced Audio Codec\nFormat profile                           : LC\nCodec ID                                 : 40\nDuration                                 : 2h 29mn\nBit rate mode                            : Variable\nBit rate                                 : 96.0 Kbps\nMaximum bit rate                         : 146 Kbps\nChannel(s)                               : 2 channels\nChannel positions                        : Front: L R\nSampling rate                            : 48.0 KHz\nCompression mode                         : Lossy\nStream size                              : 103 MiB (6%)\nLanguage                                 : English\n\nText #1\nID                                       : 3\nFormat                                   : Timed Text\nCodec ID                                 : tx3g\nDuration                                 : 2h 20mn\nBit rate mode                            : Variable\nBit rate                                 : 52 bps\nStream size                              : 53.1 KiB (0%)\nLanguage                                 : English\n\nText #2\nID                                       : 4\nFormat                                   : Timed Text\nCodec ID                                 : tx3g\nDuration                                 : 2h 20mn\nBit rate mode                            : Variable\nBit rate                                 : 43 bps\nStream size                              : 44.0 KiB (0%)\nLanguage                                 : Italian\n\nText #3\nID                                       : 5\nFormat                                   : Timed Text\nCodec ID                                 : tx3g\nDuration                                 : 2h 21mn\nBit rate mode                            : Variable\nBit rate                                 : 50 bps\nStream size                              : 51.7 KiB (0%)\nLanguage                                 : Russian\n\nText #4\nID                                       : 6\nFormat                                   : Timed Text\nCodec ID                                 : tx3g\nDuration                                 : 2h 20mn\nBit rate mode                            : Variable\nBit rate                                 : 38 bps\nStream size                              : 39.0 KiB (0%)\nLanguage                                 : Swedish\n\nText #5\nID                                       : 7\nFormat                                   : Timed Text\nCodec ID                                 : tx3g\nDuration                                 : 2h 20mn\nBit rate mode                            : Variable\nBit rate                                 : 43 bps\nStream size                              : 44.1 KiB (0%)\nLanguage                                 : Norwegian\n\nText #6\nID                                       : 8\nFormat                                   : Timed Text\nCodec ID                                 : tx3g\nDuration                                 : 2h 20mn\nBit rate mode                            : Variable\nBit rate                                 : 42 bps\nStream size                              : 43.1 KiB (0%)\nLanguage                                 : Danish\n\nText #7\nID                                       : 9\nFormat                                   : Timed Text\nCodec ID                                 : tx3g\nDuration                                 : 2h 20mn\nBit rate mode                            : Variable\nBit rate                                 : 42 bps\nStream size                              : 43.6 KiB (0%)\nLanguage                                 : Finnish\n\nText #8\nID                                       : 10\nFormat                                   : Timed Text\nCodec ID                                 : tx3g\nDuration                                 : 2h 20mn\nBit rate mode                            : Variable\nBit rate                                 : 43 bps\nStream size                              : 44.0 KiB (0%)\nLanguage                                 : Icelandic\nEncoder\t\t\t\t\t : Fastbet99\n\nScreenshots\n &lt;a href=&quot;\nhttp://lookpic.com/O/i2/1095/MSlQZRaE.jpeg&quot; rel=&quot;nofollow&quot; target=&quot;_NEW&quot;&gt;\nhttp://lookpic.com/O/i2/1095/MSlQZRaE.jpeg&lt;/a&gt;\n\nStairway To heaven - Help People With Keep Seed As Long You Can","torrent":{"xt":"urn:btih:697927ee8763a60bf9b5c6db4d1bc9a4f8dd404a","amp;dn":"The.Lone.Ranger.2013.720p.BRRip.x264-Fastbet99","amp;tr":["udp%3A%2F%2Ftracker.openbittorrent.com%3A80","udp%3A%2F%2Fopen.demonii.com%3A1337","udp%3A%2F%2Ftracker.coppersurfer.tk%3A6969","udp%3A%2F%2Fexodus.desync.com%3A6969"],"infoHash":"697927ee8763a60bf9b5c6db4d1bc9a4f8dd404a","infoHashBuffer":{"type":"Buffer","data":[105,121,39,238,135,99,166,11,249,181,198,219,77,27,201,164,248,221,64,74]},"announce":[],"urlList":[]}}